<svg width="16" height="16" viewBox="0 0 16 16" xmlns="http://www.w3.org/2000/svg"><title>Untitled</title><path d="M7.942 0C4.808 0 1.967 1.858.694 4.693c-1.273 2.835-.783 6.355 1.37 8.702 2.156 2.346 5.486 3.226 8.522 2.15 2.938-.977 5.093-3.715 5.386-6.746.392-4.596-3.427-8.8-8.03-8.8zm-2.94 4.4c.1-.098.197-.098.295-.196.098-.293-.098-.49-.294-.684.196-.685 1.372.39.784.977-.098.098-.98 0-.784-.097zm5.682 8.017c0 .293-.196.88-.588.88-.196 0-.196-.39-.196-.49.098-.586.392-.683.686-1.172.294.098.098.49.098.782zm4.113-4.106c-.196 0-.098-.39-.196-.586-.293.098-.782.587-.978.88-.098.195.098.88-.294.88-.098 0-.196-.49-.196-.587-.098-.293-.098-.586-.196-.782-.098-.293-.294-.098-.49-.098-.293-.098-.195-.39-.587-.39-.393 0-.49.195-.393.586-.294.293-.783.88-1.273.88-.294 0-.392-1.076-.783-1.27-.195-.295-.49-.1-.293.096.196.195.196.488.392.684.39.39.782.782 1.272.39-.098.588-.49.98-.882 1.37-.196.293-.39.49-.294.88.098.293.294.684 0 .88-.195.195-.49.293-.49.488 0 .098.1.196 0 .294-.097.195-.195.293-.293.39-.196.294-.49.88-.783.98-.196.096-.588.194-.686 0-.392-.392-.196-1.468-.392-1.957-.098-.294.098-.49.098-.783 0-.196-.196-.39-.294-.587-.098-.293-.098-.39-.098-.684 0-.293-.195-.098-.39-.196-.1-.097-.1-.293-.393-.097-.196.097-.784.195-.98.195-.293-.098-.685-.782-.783-1.075-.098-.294.098-.49.098-.782-.098-.195 0-.488.098-.684.196-.293.49-.782.783-.978.197-.097.49 0 .785-.097.196-.097.588-.097.783-.097.294.195 0 .49.196.587.196.097.294.195.49.293.196.098.294-.196.392-.293h.587c.294.097.98-.196.686-.685-.1-.098-.393-.195-.59-.293-.195-.098-.097-.39-.39-.39-.196 0 .097.292 0 .39-.098.195-.392-.293-.392-.293 0-.1-.49-.784-.686-.588-.098 0 .784.978.098.782 0-.293-.294-.293-.392-.49-.195-.194-.293-.097-.587.1-.195.195-.49.488-.783.586-.49.293-.39-.294-.39-.685 0-.195.39-.098.488-.195.392-.196 0-.294-.098-.49.098-.195.784-.39.98-.39.293-.098.685-.39 1.175-.098.098 0 .685-.39.294-.49-.588-.292-.588.1-.98.197 0-.392-.98-.49-.685-.98.295-.488.588-.488 1.47-.586.685 0 .98 0 1.077.098.098.098.294.587-.098.587.097.585.685 0 .88-.1.392-.195 1.176-.097 1.274-.195.098-.097-.098-.293 0-.488.098-.098.294-.098.294.097.39.098.587-.195.98.098 1.272.88 2.25 2.053 2.74 4.01.295.88.393 1.856.1 1.76z" fill="#35353A" fill-rule="evenodd"/></svg>