<?xml version="1.0" encoding="UTF-8" standalone="no"?>
<svg width="176px" height="30px" viewBox="0 0 176 30" version="1.1" xmlns="http://www.w3.org/2000/svg" xmlns:xlink="http://www.w3.org/1999/xlink" xmlns:sketch="http://www.bohemiancoding.com/sketch/ns">
    <!-- Generator: Sketch 3.3.3 (12081) - http://www.bohemiancoding.com/sketch -->
    <title>logo-rockabox</title>
    <desc>Created with Sketch.</desc>
    <defs>
        <path d="M175.5,29.2 L171.8,29.2 L164.6,19.2 L157.4,29.2 L153.8,29.2 L162.8,16.6 L154.6,5.3 L158.3,5.3 L164.6,14 L170.9,5.3 L174.6,5.3 L166.5,16.5 L175.5,29.2 L175.5,29.2 Z M150.6,10.7 C148.8,8.8 146.6,7.9 144,7.9 C141.5,7.9 139.3,8.8 137.4,10.7 C135.6,12.6 134.7,14.9 134.7,17.5 C134.7,19.2 135.2,20.9 135.9,22.4 C136.7,23.9 137.9,25 139.3,25.9 C140.7,26.8 142.3,27.1 144,27.1 C145.7,27.1 147.3,26.7 148.7,25.9 C150.1,25.1 151.2,23.9 152.1,22.4 C152.9,20.9 153.3,19.3 153.3,17.5 C153.4,14.8 152.4,12.6 150.6,10.7 L150.6,10.7 Z M153,26.2 C150.7,28.7 147.8,30 144.1,30 C140.4,30 137.4,28.8 135.2,26.2 C132.9,23.7 131.7,20.8 131.7,17.5 C131.7,14.2 132.8,11.3 135,8.9 C137.4,6.2 140.4,4.9 144.1,4.9 C147.8,4.9 150.8,6.2 153.2,8.9 C155.4,11.3 156.5,14.2 156.5,17.5 C156.4,20.7 155.3,23.6 153,26.2 L153,26.2 Z M126,12.6 C125.2,11.1 124,9.9 122.5,9 C121.1,8.2 119.5,7.7 117.9,7.7 C116.2,7.7 114.6,8.2 113.1,9 C111.6,9.8 110.5,11 109.6,12.5 C108.8,13.9 108.4,15.6 108.4,17.4 C108.4,20.2 109.3,22.5 111.1,24.3 C112.9,26.2 115.1,27.1 117.8,27.1 C119.5,27.1 121.1,26.6 122.5,25.8 C123.9,25 125.1,23.7 126,22.2 C126.8,20.7 127.3,19.1 127.3,17.3 C127.3,15.5 126.9,14.1 126,12.6 L126,12.6 Z M126.9,26.2 C124.5,28.6 121.7,29.9 118.3,29.9 C116.3,29.9 114.6,29.5 113.1,28.7 C111.6,27.9 110.1,26.6 109,24.9 L109,29.3 L105.9,29.3 L105.9,0 L109,0 L109,9.6 C110.3,8 111.7,6.9 113.3,6 C114.9,5.2 116.6,4.8 118.5,4.8 C121.9,4.8 124.7,6 127.1,8.5 C129.4,10.9 130.7,13.9 130.7,17.4 C130.4,20.8 129.2,23.8 126.9,26.2 L126.9,26.2 Z M97.9,10.6 C96.1,8.7 93.9,7.8 91.2,7.8 C89.5,7.8 87.9,8.3 86.5,9 C85.1,9.8 83.9,11.1 83,12.6 C82.1,14.1 81.7,15.7 81.7,17.4 C81.7,19.1 82.2,20.7 83,22.3 C83.8,23.8 85,25 86.5,25.9 C87.9,26.7 89.5,27.2 91.2,27.2 C92.9,27.2 94.5,26.7 96,25.9 C97.5,25.1 98.6,23.9 99.5,22.4 C100.3,21 100.7,19.3 100.7,17.5 C100.6,14.7 99.7,12.5 97.9,10.6 L97.9,10.6 Z M100.4,29.2 L100.4,25.2 C99.1,26.8 97.7,27.9 96.1,28.8 C94.5,29.6 92.7,30 90.9,30 C87.5,30 84.6,28.8 82.3,26.3 C80,23.9 78.7,20.9 78.7,17.4 C78.7,13.9 79.9,11 82.3,8.6 C84.7,6.2 87.5,4.9 90.9,4.9 C92.9,4.9 94.6,5.3 96.2,6.1 C97.8,6.9 99.2,8.2 100.3,9.9 L100.3,5.4 L103.3,5.4 L103.3,29.2 L100.4,29.2 L100.4,29.2 Z M82.2,29.2 L77.9,29.2 L66,18.6 L66,29.4 L62.9,29.4 L62.9,0 L66,0 L66,15.1 L77,5.5 L81.5,5.5 L68.6,16.8 L82.2,29.2 L82.2,29.2 Z M50.1,7.8 C47.2,7.8 44.9,8.7 42.9,10.6 C41,12.5 40,14.7 40,17.4 C40,19.2 40.5,20.8 41.3,22.3 C42.1,23.8 43.4,25 45,25.9 C46.6,26.8 48.3,27.2 50.2,27.2 C53.7,27.2 56.6,25.8 58.7,23 L61.1,24.6 C60,26.3 58.5,27.7 56.5,28.6 C54.6,29.5 52.4,30 49.9,30 C46.2,30 43.1,28.8 40.5,26.4 C38.1,24 36.8,21.1 36.8,17.7 C36.8,15.4 37.4,13.2 38.6,11.2 C39.8,9.1 41.4,7.6 43.5,6.5 C45.6,5.4 47.8,4.8 50.2,4.8 C51.8,4.8 53.3,5.1 54.8,5.6 C56.3,6.1 57.5,6.7 58.5,7.5 C59.5,8.3 60.4,9.3 61.1,10.5 L58.7,12 C56.6,9.2 53.7,7.8 50.1,7.8 L50.1,7.8 Z M29.7,10.7 C27.8,8.8 25.7,7.9 23.1,7.9 C20.6,7.9 18.4,8.8 16.5,10.7 C14.7,12.6 13.8,14.9 13.8,17.5 C13.8,19.2 14.2,20.9 15,22.4 C15.8,23.9 17,25 18.4,25.9 C19.8,26.7 21.4,27.1 23.1,27.1 C24.8,27.1 26.4,26.7 27.8,25.9 C29.2,25.1 30.3,23.9 31.2,22.4 C32,20.9 32.4,19.3 32.4,17.5 C32.4,14.8 31.5,12.6 29.7,10.7 L29.7,10.7 Z M32,26.2 C29.7,28.7 26.8,30 23.1,30 C19.4,30 16.4,28.8 14.2,26.2 C11.9,23.7 10.7,20.8 10.7,17.5 C10.7,14.2 11.8,11.3 14,8.9 C16.4,6.2 19.4,4.9 23.1,4.9 C26.8,4.9 29.8,6.2 32.2,8.9 C34.4,11.3 35.5,14.2 35.5,17.5 C35.4,20.7 34.3,23.6 32,26.2 L32,26.2 Z M10.9,8.2 C10.2,7.9 9.7,7.8 9.3,7.8 C8.3,7.8 7.3,8.3 6.4,9 C5.5,9.8 4.7,11.2 4.2,12.9 C3.8,14.3 3.6,17 3.6,21.1 L3.6,29.2 L0.4,29.2 L0.4,5.5 L3.5,5.5 L3.5,9 C4.4,7.6 5.4,6.6 6.4,5.9 C7.4,5.2 8.5,4.9 9.6,4.9 C10.4,4.9 11.4,5.2 12.3,5.7 L10.9,8.2 L10.9,8.2 Z" id="path-1"></path>
    </defs>
    <g id="Page-1" stroke="none" stroke-width="1" fill="none" fill-rule="evenodd" sketch:type="MSPage">
        <g id="logo-rockabox" sketch:type="MSLayerGroup">
            <path d="M175.5,29.2 L171.8,29.2 L164.6,19.2 L157.4,29.2 L153.8,29.2 L162.8,16.6 L154.6,5.3 L158.3,5.3 L164.6,14 L170.9,5.3 L174.6,5.3 L166.5,16.5 L175.5,29.2 L175.5,29.2 Z M150.6,10.7 C148.8,8.8 146.6,7.9 144,7.9 C141.5,7.9 139.3,8.8 137.4,10.7 C135.6,12.6 134.7,14.9 134.7,17.5 C134.7,19.2 135.2,20.9 135.9,22.4 C136.7,23.9 137.9,25 139.3,25.9 C140.7,26.8 142.3,27.1 144,27.1 C145.7,27.1 147.3,26.7 148.7,25.9 C150.1,25.1 151.2,23.9 152.1,22.4 C152.9,20.9 153.3,19.3 153.3,17.5 C153.4,14.8 152.4,12.6 150.6,10.7 L150.6,10.7 Z M153,26.2 C150.7,28.7 147.8,30 144.1,30 C140.4,30 137.4,28.8 135.2,26.2 C132.9,23.7 131.7,20.8 131.7,17.5 C131.7,14.2 132.8,11.3 135,8.9 C137.4,6.2 140.4,4.9 144.1,4.9 C147.8,4.9 150.8,6.2 153.2,8.9 C155.4,11.3 156.5,14.2 156.5,17.5 C156.4,20.7 155.3,23.6 153,26.2 L153,26.2 Z M126,12.6 C125.2,11.1 124,9.9 122.5,9 C121.1,8.2 119.5,7.7 117.9,7.7 C116.2,7.7 114.6,8.2 113.1,9 C111.6,9.8 110.5,11 109.6,12.5 C108.8,13.9 108.4,15.6 108.4,17.4 C108.4,20.2 109.3,22.5 111.1,24.3 C112.9,26.2 115.1,27.1 117.8,27.1 C119.5,27.1 121.1,26.6 122.5,25.8 C123.9,25 125.1,23.7 126,22.2 C126.8,20.7 127.3,19.1 127.3,17.3 C127.3,15.5 126.9,14.1 126,12.6 L126,12.6 Z M126.9,26.2 C124.5,28.6 121.7,29.9 118.3,29.9 C116.3,29.9 114.6,29.5 113.1,28.7 C111.6,27.9 110.1,26.6 109,24.9 L109,29.3 L105.9,29.3 L105.9,0 L109,0 L109,9.6 C110.3,8 111.7,6.9 113.3,6 C114.9,5.2 116.6,4.8 118.5,4.8 C121.9,4.8 124.7,6 127.1,8.5 C129.4,10.9 130.7,13.9 130.7,17.4 C130.4,20.8 129.2,23.8 126.9,26.2 L126.9,26.2 Z M97.9,10.6 C96.1,8.7 93.9,7.8 91.2,7.8 C89.5,7.8 87.9,8.3 86.5,9 C85.1,9.8 83.9,11.1 83,12.6 C82.1,14.1 81.7,15.7 81.7,17.4 C81.7,19.1 82.2,20.7 83,22.3 C83.8,23.8 85,25 86.5,25.9 C87.9,26.7 89.5,27.2 91.2,27.2 C92.9,27.2 94.5,26.7 96,25.9 C97.5,25.1 98.6,23.9 99.5,22.4 C100.3,21 100.7,19.3 100.7,17.5 C100.6,14.7 99.7,12.5 97.9,10.6 L97.9,10.6 Z M100.4,29.2 L100.4,25.2 C99.1,26.8 97.7,27.9 96.1,28.8 C94.5,29.6 92.7,30 90.9,30 C87.5,30 84.6,28.8 82.3,26.3 C80,23.9 78.7,20.9 78.7,17.4 C78.7,13.9 79.9,11 82.3,8.6 C84.7,6.2 87.5,4.9 90.9,4.9 C92.9,4.9 94.6,5.3 96.2,6.1 C97.8,6.9 99.2,8.2 100.3,9.9 L100.3,5.4 L103.3,5.4 L103.3,29.2 L100.4,29.2 L100.4,29.2 Z M82.2,29.2 L77.9,29.2 L66,18.6 L66,29.4 L62.9,29.4 L62.9,0 L66,0 L66,15.1 L77,5.5 L81.5,5.5 L68.6,16.8 L82.2,29.2 L82.2,29.2 Z M50.1,7.8 C47.2,7.8 44.9,8.7 42.9,10.6 C41,12.5 40,14.7 40,17.4 C40,19.2 40.5,20.8 41.3,22.3 C42.1,23.8 43.4,25 45,25.9 C46.6,26.8 48.3,27.2 50.2,27.2 C53.7,27.2 56.6,25.8 58.7,23 L61.1,24.6 C60,26.3 58.5,27.7 56.5,28.6 C54.6,29.5 52.4,30 49.9,30 C46.2,30 43.1,28.8 40.5,26.4 C38.1,24 36.8,21.1 36.8,17.7 C36.8,15.4 37.4,13.2 38.6,11.2 C39.8,9.1 41.4,7.6 43.5,6.5 C45.6,5.4 47.8,4.8 50.2,4.8 C51.8,4.8 53.3,5.1 54.8,5.6 C56.3,6.1 57.5,6.7 58.5,7.5 C59.5,8.3 60.4,9.3 61.1,10.5 L58.7,12 C56.6,9.2 53.7,7.8 50.1,7.8 L50.1,7.8 Z M29.7,10.7 C27.8,8.8 25.7,7.9 23.1,7.9 C20.6,7.9 18.4,8.8 16.5,10.7 C14.7,12.6 13.8,14.9 13.8,17.5 C13.8,19.2 14.2,20.9 15,22.4 C15.8,23.9 17,25 18.4,25.9 C19.8,26.7 21.4,27.1 23.1,27.1 C24.8,27.1 26.4,26.7 27.8,25.9 C29.2,25.1 30.3,23.9 31.2,22.4 C32,20.9 32.4,19.3 32.4,17.5 C32.4,14.8 31.5,12.6 29.7,10.7 L29.7,10.7 Z M32,26.2 C29.7,28.7 26.8,30 23.1,30 C19.4,30 16.4,28.8 14.2,26.2 C11.9,23.7 10.7,20.8 10.7,17.5 C10.7,14.2 11.8,11.3 14,8.9 C16.4,6.2 19.4,4.9 23.1,4.9 C26.8,4.9 29.8,6.2 32.2,8.9 C34.4,11.3 35.5,14.2 35.5,17.5 C35.4,20.7 34.3,23.6 32,26.2 L32,26.2 Z M10.9,8.2 C10.2,7.9 9.7,7.8 9.3,7.8 C8.3,7.8 7.3,8.3 6.4,9 C5.5,9.8 4.7,11.2 4.2,12.9 C3.8,14.3 3.6,17 3.6,21.1 L3.6,29.2 L0.4,29.2 L0.4,5.5 L3.5,5.5 L3.5,9 C4.4,7.6 5.4,6.6 6.4,5.9 C7.4,5.2 8.5,4.9 9.6,4.9 C10.4,4.9 11.4,5.2 12.3,5.7 L10.9,8.2 L10.9,8.2 Z" id="Shape" fill="#FFFFFF" sketch:type="MSShapeGroup"></path>
            <g id="Clipped">
                <mask id="mask-2" sketch:name="a" fill="white">
                    <use xlink:href="#path-1"></use>
                </mask>
                <g id="a"></g>
                <path d="M-118.9,-60.2 L425.9,-60.2 L425.9,181.8 L-118.9,181.8 L-118.9,-60.2 Z" id="Shape" fill="#FFFFFF" sketch:type="MSShapeGroup" mask="url(#mask-2)"></path>
            </g>
        </g>
    </g>
</svg>