<svg width="100" height="22" viewBox="0 0 100 22" xmlns="http://www.w3.org/2000/svg"><title>Logo_Distribute</title><g fill="none" fill-rule="evenodd"><path d="M4.092 9.228c0-1.193 1.2-2.105 3.138-2.105 2.152 0 4.02.912 5.044 2.035l1.552-2.596C12.31 5.228 10.123 4.21 7.23 4.21c-4.302 0-6.7 2.352-6.7 5.123 0 6.527 10.298 4.14 10.298 7.474 0 1.333-1.164 2.246-3.386 2.246-2.187 0-4.55-1.123-5.75-2.35L0 19.332C1.764 21.053 4.374 22 7.3 22c4.586 0 7.09-2.28 7.09-5.298 0-6.737-10.298-4.49-10.298-7.474zm19.813 9.51c-3.07 0-5.15-2.352-5.15-5.65 0-3.3 2.08-5.614 5.15-5.614 1.657 0 2.962.63 3.915 1.964l2.433-2.21c-1.2-1.614-3.174-3.018-6.524-3.018-5.15 0-8.783 3.755-8.783 8.878S18.58 22 23.73 22c3.35 0 5.324-1.44 6.523-3.017l-2.433-2.28c-.953 1.332-2.258 2.034-3.915 2.034zm14.8-14.528c-5.43 0-8.745 4-8.745 8.878 0 4.842 3.315 8.912 8.746 8.912 5.432 0 8.748-4.07 8.748-8.912 0-4.878-3.316-8.878-8.748-8.878zm0 14.527c-3.137 0-4.9-2.632-4.9-5.65 0-2.982 1.763-5.613 4.9-5.613 3.176 0 4.904 2.63 4.904 5.614 0 3.017-1.73 5.65-4.904 5.65zM56.944 4.21c-5.43 0-8.746 4-8.746 8.878 0 4.842 3.315 8.912 8.746 8.912 5.432 0 8.747-4.07 8.747-8.912 0-4.878-3.315-8.878-8.747-8.878zm0 14.527c-3.138 0-4.902-2.632-4.902-5.65 0-2.982 1.765-5.613 4.903-5.613 3.175 0 4.903 2.63 4.903 5.614 0 3.017-1.728 5.65-4.903 5.65zm16.52 0c-1.058 0-1.622-.877-1.622-2.035V7.824h3.457V4.63H71.84V0h-3.703v4.63h-2.82v3.194h2.82v9.79c0 2.842 1.482 4.386 4.374 4.386 1.693 0 2.787-.49 3.457-1.088l-.882-2.807c-.282.316-.917.632-1.622.632zM89.44 4.63v.938c-1.336-.86-2.988-1.358-4.904-1.358-5.43 0-8.747 4-8.747 8.878 0 4.842 3.315 8.912 8.746 8.912 1.916 0 3.568-.508 4.905-1.376v.955H93V4.63h-3.56zm-4.904 14.107c-3.14 0-4.902-2.632-4.902-5.65 0-2.982 1.763-5.613 4.902-5.613 3.174 0 4.903 2.63 4.903 5.614 0 3.017-1.73 5.65-4.904 5.65z" fill="#FCFCFC"/><path d="M95 19.464C95 18.142 96.143 17 97.5 17c1.358 0 2.5 1.142 2.5 2.464C100 20.82 98.858 22 97.5 22c-1.357 0-2.5-1.18-2.5-2.536" fill="#20D8E5"/></g></svg>