<?xml version="1.0" encoding="UTF-8" standalone="no"?>
<svg width="82px" height="82px" viewBox="0 0 82 82" version="1.1" xmlns="http://www.w3.org/2000/svg" xmlns:xlink="http://www.w3.org/1999/xlink" xmlns:sketch="http://www.bohemiancoding.com/sketch/ns">
    <!-- Generator: Sketch 3.3.3 (12072) - http://www.bohemiancoding.com/sketch -->
    <title>Icon Copy</title>
    <desc>Created with Sketch.</desc>
    <defs></defs>
    <g id="Page-1" stroke="none" stroke-width="1" fill="none" fill-rule="evenodd" sketch:type="MSPage">
        <g id="1.Initial" sketch:type="MSArtboardGroup" transform="translate(-559.000000, -205.000000)">
            <g id="Icon-Copy" sketch:type="MSLayerGroup" transform="translate(560.000000, 206.000000)">
                <path d="M79.8732323,59.7979798 C79.8732323,70.956229 70.8227273,80 59.6712121,80 C48.512963,80 39.4691919,70.956229 39.4691919,59.7979798 C39.4691919,48.6430976 48.512963,39.5959596 59.6712121,39.5959596 C70.8227273,39.5959596 79.8732323,48.6430976 79.8732323,59.7979798 L79.8732323,59.7979798 Z" id="Stroke-186" stroke="#3EB980" stroke-width="2" stroke-linejoin="round" sketch:type="MSShapeGroup"></path>
                <path d="M36.9159398,77.2381554 L0.301322751,77.2381554 L0.301322751,0.518578644 L45.6337058,0.518578644 L59.5821313,14.4675926 L59.5821313,30.1602333" id="Stroke-155" stroke="#8D96A3" stroke-width="2" stroke-linejoin="round" sketch:type="MSShapeGroup"></path>
                <path d="M28.1993506,0.518578644 L28.1993506,7.49308562 L31.6866041,7.49308562 L31.6866041,24.9293531 L21.2248437,24.9293531 L21.2248437,7.49308562" id="Stroke-156" stroke="#8D96A3" stroke-width="2" stroke-linecap="round" stroke-linejoin="round" sketch:type="MSShapeGroup"></path>
                <path d="M24.7120972,31.5151515 L28.1993506,31.5151515" id="Stroke-157" stroke="#8D96A3" stroke-width="2" stroke-linecap="round" stroke-linejoin="round" sketch:type="MSShapeGroup"></path>
                <path d="M24.7120972,38.7878788 L28.1993506,38.7878788" id="Stroke-158" stroke="#8D96A3" stroke-width="2" stroke-linecap="round" stroke-linejoin="round" sketch:type="MSShapeGroup"></path>
                <path d="M24.7120972,45.2525253 L28.1993506,45.2525253" id="Stroke-159" stroke="#8D96A3" stroke-width="2" stroke-linecap="round" stroke-linejoin="round" sketch:type="MSShapeGroup"></path>
                <path d="M24.7120972,52.5252525 L28.1993506,52.5252525" id="Stroke-160" stroke="#8D96A3" stroke-width="2" stroke-linecap="round" stroke-linejoin="round" sketch:type="MSShapeGroup"></path>
                <path d="M24.7120972,59.7979798 L28.1993506,59.7979798" id="Stroke-161" stroke="#8D96A3" stroke-width="2" stroke-linecap="round" stroke-linejoin="round" sketch:type="MSShapeGroup"></path>
                <path d="M24.7120972,66.2626263 L28.1993506,66.2626263" id="Stroke-162" stroke="#8D96A3" stroke-width="2" stroke-linecap="round" stroke-linejoin="round" sketch:type="MSShapeGroup"></path>
                <path d="M28.1993506,34.7474747 L31.6866041,34.7474747" id="Stroke-163" stroke="#8D96A3" stroke-width="2" stroke-linecap="round" stroke-linejoin="round" sketch:type="MSShapeGroup"></path>
                <path d="M28.1993506,42.020202 L31.6866041,42.020202" id="Stroke-164" stroke="#8D96A3" stroke-width="2" stroke-linecap="round" stroke-linejoin="round" sketch:type="MSShapeGroup"></path>
                <path d="M28.1993506,49.2929293 L31.6866041,49.2929293" id="Stroke-165" stroke="#8D96A3" stroke-width="2" stroke-linecap="round" stroke-linejoin="round" sketch:type="MSShapeGroup"></path>
                <path d="M28.1993506,55.7575758 L31.6866041,55.7575758" id="Stroke-166" stroke="#8D96A3" stroke-width="2" stroke-linecap="round" stroke-linejoin="round" sketch:type="MSShapeGroup"></path>
                <path d="M28.1993506,63.030303 L31.6866041,63.030303" id="Stroke-167" stroke="#8D96A3" stroke-width="2" stroke-linecap="round" stroke-linejoin="round" sketch:type="MSShapeGroup"></path>
                <path d="M26.4567701,16.2094757 L22.9695166,16.2094757 L22.9695166,19.6967292 L26.4567701,19.6967292 L26.4567701,16.2094757 Z" id="Fill-168" fill="#8D96A3" sketch:type="MSShapeGroup"></path>
                <path d="M59.2,50.5771429 L59.2,69.4064286" id="Stroke-153" stroke="#3EB980" stroke-width="2" stroke-linecap="round" stroke-linejoin="round" sketch:type="MSShapeGroup"></path>
                <path d="M66.5205,57.3157619 L58.9874048,49.7792143 L51.4577619,57.3157619" id="Stroke-154" stroke="#3EB980" stroke-width="2" stroke-linecap="round" stroke-linejoin="round" sketch:type="MSShapeGroup"></path>
            </g>
        </g>
    </g>
</svg>