<svg width="112" height="192" viewBox="0 0 112 192" xmlns="http://www.w3.org/2000/svg"><title>Untitled</title><g fill="none" fill-rule="evenodd"><path d="M.03 0h111.472v191.97H.03V0z" fill="#DCE3EC"/><path d="M15.93 25.5h79.643v157H15.93v-157z" fill="#FCFCFC"/><path d="M15.93 9.5h79.643v12H15.93v-12zm3.98 20h57.743v4H19.91v-4zm63.717 0h7.964v4H83.63v-4zm-5.974 8H91.59v33H77.654v-33zm-57.743 0h53.76v33H19.91v-33z" fill="#C4CCD7"/><path d="M58.06 60.752l-5.906-7.267c-.198-.245-.5-.4-.836-.4-.336 0-.635.155-.834.4l-.79.97c-.03.047-.066.09-.103.128-.19.2-.457.325-.75.325-.28 0-.534-.11-.72-.29-.065-.062-.12-.13-.167-.204l-2.904-3.572c-.26-.32-.655-.522-1.095-.522-.44 0-.834.203-1.093.523L35 60.51c-.098.154-.156.334-.156.53 0 .53.424.96.946.96h21.76v-.002c.396 0 .72-.328.72-.732 0-.154-.045-.297-.127-.414l-.082-.1M56.38 46c-1.302 0-2.358 1.072-2.358 2.392 0 1.322 1.056 2.395 2.357 2.395 1.3 0 2.357-1.073 2.357-2.395 0-1.32-1.056-2.392-2.36-2.392" fill="#DCE3EC"/><path d="M19.91 74.5h67.7v2h-67.7v-2zm0 4h71.68v2H19.91v-2zm0 4h63.717v2H19.91v-2zm45.797 4H91.59v22H65.708v-22zm-45.797 0h37.832v2h-37.83v-2zm0 4h33.85v2H19.91v-2zm0 4h41.814v2H19.91v-2zm0 4h37.832v2h-37.83v-2zm0 4h37.832v2h-37.83v-2zm0 4h41.814v2H19.91v-2zm0 4h67.7v2h-67.7v-2zm0 4h71.68v2H19.91v-2zm0 4h63.717v2H19.91v-2zm0 6h71.68v24H19.91v-24z" fill="#C4CCD7"/><path d="M61.386 139.376l-2.953-3.633c-.1-.123-.25-.2-.418-.2-.168 0-.318.077-.418.2l-.394.485-.052.064c-.093.1-.23.162-.374.162-.14 0-.267-.055-.36-.145l-.083-.104-1.452-1.785c-.13-.16-.327-.26-.546-.26-.22 0-.418.1-.547.26l-3.867 4.756-.065.08c-.048.075-.077.165-.077.262 0 .264.212.48.472.48h10.88c.2 0 .36-.165.36-.367 0-.076-.022-.15-.063-.206l-.04-.05M60.545 132c-.65 0-1.18.536-1.18 1.196 0 .66.53 1.197 1.18 1.197.652 0 1.18-.536 1.18-1.197 0-.66-.528-1.196-1.18-1.196" fill="#DCE3EC"/><path d="M19.91 152.5h33.85v2H19.91v-2zm0 4h29.87v2H19.91v-2zm0 4h31.86v2H19.91v-2zm0 4h33.85v2H19.91v-2zm0 4h31.86v2H19.91v-2zm0 4h29.87v2H19.91v-2zm0 4h31.86v2H19.91v-2zm37.832-24H87.61v2H57.74v-2zm0 4h33.85v2H57.74v-2zm0 4H89.6v2H57.742v-2zm0 4H87.61v2H57.74v-2zm0 4h33.85v2H57.74v-2zm0 4H89.6v2H57.742v-2zm0 4h17.92v2h-17.92v-2z" fill="#C4CCD7"/><path d="M15.93 9.5h79.643v12H15.93v-12zM110.506 1H.996v90H15.93V25.5H95.57V91h14.934V1z" fill="#BCDBD6"/><path d="M19.91 86.5h37.832v2h-37.83v-2zm0-4h63.717v2H19.91v-2zm0-4h71.68v2H19.91v-2zm0-4h67.7v2h-67.7v-2zm0-37h53.76v33H19.91v-33zm57.743 0H91.59v33H77.654v-33zm-57.742-8h57.744v4H19.91v-4zm63.718 0h7.964v4H83.63v-4zm11.946-4H15.93V91h3.98v-.5h33.85v.5h11.947v-4.5H91.59V91h3.983V25.5z" fill="#D6EFE3"/><path d="M15.93 9.5h79.643v12H15.93v-12zm3.98 20h57.743v4H19.91v-4zm63.717 0h7.964v4H83.63v-4zm-5.974 8H91.59v33H77.654v-33zM35.79 62v-.002c-.522 0-.946-.43-.946-.96 0-.194.058-.374.155-.526l7.86-9.67c.26-.32.654-.522 1.093-.522.44 0 .835.203 1.094.523l2.904 3.57c.047.076.103.144.167.206.187.176.44.287.72.287.294 0 .563-.124.753-.325.038-.04.073-.08.105-.127l.79-.97c.198-.246.497-.4.833-.4.337 0 .638.154.836.4l5.907 7.266.084.1c.082.118.126.26.126.415 0 .404-.324.733-.72.733H35.79zm20.59-11.212c-1.302 0-2.358-1.074-2.358-2.395 0-1.322 1.056-2.393 2.357-2.393 1.3 0 2.357 1.072 2.357 2.392 0 1.322-1.056 2.395-2.36 2.395zM19.91 70.5h53.76v-33H19.91v33z" fill="#A9C8C6"/><path d="M43.954 50.32c-.44 0-.834.203-1.093.523L35 60.51c-.098.154-.156.334-.156.53 0 .53.424.96.946.96h21.76v-.002c.396 0 .72-.328.72-.732 0-.154-.045-.297-.127-.414l-.082-.1-5.905-7.267c-.198-.245-.5-.4-.836-.4-.337 0-.636.155-.835.4l-.79.97c-.03.047-.066.09-.103.128-.19.2-.458.325-.752.325-.28 0-.533-.11-.72-.29-.064-.062-.12-.13-.166-.204l-2.904-3.572c-.26-.32-.654-.522-1.094-.522M56.38 46c-1.302 0-2.358 1.072-2.358 2.392 0 1.322 1.056 2.395 2.357 2.395 1.3 0 2.357-1.073 2.357-2.395 0-1.32-1.056-2.392-2.36-2.392" fill="#BCDBD6"/><path d="M19.91 74.5h67.7v2h-67.7v-2zm0 4h71.68v2H19.91v-2zm0 4h63.717v2H19.91v-2zm45.797 4H91.59V91H65.708v-4.5zm-45.797 0h37.832v2h-37.83v-2zm0 4h33.85v.5H19.91v-.5z" fill="#A9C8C6"/><path d="M1.99 2h107.52v88H1.99V2zM0 92h111.502V0H0v92z" fill="#3EB980"/></g></svg>