<svg width="112" height="192" viewBox="0 0 112 192" xmlns="http://www.w3.org/2000/svg"><title>anywhere</title><g fill="none" fill-rule="evenodd"><path fill="#DCE3EC" d="M0 0h112v192H0z"/><path fill="#C4CCD7" d="M16 10h80v12H16z"/><path fill="#FCFCFC" d="M16 26h80v154H16z"/><path fill="#C4CCD7" d="M20 30h60v4H20zM20 80h72v2H20zM20 84h72v2H20zM20 88h37v2H20zM20 92h42v2H20zM20 96h39v2H20zM20 100h35v2H20zM20 104h42v2H20zM20 108h66v2H20zM20 112h62v2H20zM20 116h32v2H20zM20 158h32v2H20zM20 162h26v2H20zM20 166h30v2H20zM20 170h19v2H20zM20 174h27v2H20zM60 158h32v2H60zM60 162h26v2H60zM60 166h30v2H60zM60 170h19v2H60zM60 174h27v2H60zM20 38h52v38H20zM20 122h72v32H20zM76 38h16v38H76zM64 88h28v18H64zM84 30h8v4h-8z"/><path stroke="#8D96A3" stroke-width="2" d="M1 1h110v190H1z"/></g></svg>