<svg width="112" height="192" viewBox="0 0 112 192" xmlns="http://www.w3.org/2000/svg"><title>Imported Layers</title><g fill="none" fill-rule="evenodd"><path d="M.03 0H112v191.97H.03V0z" fill="#DCE3EC"/><path d="M16 25.5h80v157H16v-157z" fill="#FCFCFC"/><path d="M16 9.5h80v12H16v-12zm4 20h58v4H20v-4zm64 0h8v4h-8v-4zm-6 8h14v33H78v-33zm-58 0h54v33H20v-33z" fill="#C4CCD7"/><path d="M58.32 60.752l-5.933-7.267c-.2-.245-.5-.4-.84-.4-.337 0-.637.155-.838.4l-.794.97c-.032.047-.068.09-.105.128-.19.2-.46.325-.755.325-.28 0-.535-.11-.723-.29-.064-.062-.12-.13-.167-.204l-2.916-3.572c-.26-.32-.658-.522-1.1-.522-.44 0-.84.203-1.1.523l-7.895 9.668c-.098.155-.156.335-.156.53 0 .53.424.96.95.96h21.855c.4 0 .724-.33.724-.73 0-.157-.047-.3-.128-.417l-.082-.1M56.63 46c-1.306 0-2.367 1.072-2.367 2.393 0 1.32 1.06 2.395 2.368 2.395 1.31 0 2.37-1.074 2.37-2.395C59 47.07 57.94 46 56.63 46" fill="#DCE3EC"/><path d="M20 74.5h68v2H20v-2zm0 4h72v2H20v-2zm0 4h64v2H20v-2zm46 4h26v22H66v-22zm-46 0h38v2H20v-2zm0 4h34v2H20v-2zm0 4h42v2H20v-2zm0 4h38v2H20v-2zm0 4h38v2H20v-2zm0 4h42v2H20v-2zm0 4h68v2H20v-2zm0 4h72v2H20v-2zm0 4h64v2H20v-2zm0 6h72v24H20v-24z" fill="#C4CCD7"/><path d="M61.66 139.376l-2.966-3.633c-.1-.123-.25-.2-.42-.2-.17 0-.32.077-.42.2l-.395.485c-.018.022-.036.044-.055.064-.096.1-.23.162-.378.162-.14 0-.267-.055-.36-.145-.033-.03-.062-.067-.085-.104l-1.46-1.785c-.128-.16-.327-.26-.547-.26-.22 0-.42.1-.55.26l-3.884 4.756-.063.08c-.05.075-.078.165-.078.262 0 .264.212.48.473.48h10.93c.198 0 .36-.165.36-.367 0-.076-.022-.15-.063-.206l-.04-.05M60.816 132c-.654 0-1.184.536-1.184 1.196 0 .66.53 1.197 1.184 1.197.654 0 1.184-.536 1.184-1.197 0-.66-.53-1.196-1.184-1.196" fill="#DCE3EC"/><path d="M20 152.5h34v2H20v-2zm0 4h30v2H20v-2zm0 4h32v2H20v-2zm0 4h34v2H20v-2zm0 4h32v2H20v-2zm0 4h30v2H20v-2zm0 4h32v2H20v-2zm38-24h30v2H58v-2zm0 4h34v2H58v-2zm0 4h32v2H58v-2zm0 4h30v2H58v-2zm0 4h34v2H58v-2zm0 4h32v2H58v-2zm0 4h18v2H58v-2z" fill="#C4CCD7"/><path d="M2 2h108v188H2V2zM0 192h112V0H0v192z" fill="#8D96A3"/></g></svg>