<svg width="112" height="192" viewBox="0 0 112 192" xmlns="http://www.w3.org/2000/svg"><title>Untitled</title><g fill="none" fill-rule="evenodd"><path d="M0 0h111.502v191.97H0V0z" fill="#DCE3EC"/><path d="M15.93 25.5h79.643v157H15.93v-157z" fill="#FCFCFC"/><path d="M15.93 9.5h79.643v12H15.93v-12zm3.98 20h57.743v4H19.91v-4zm63.717 0h7.964v4H83.63v-4zm-5.974 8H91.59v33H77.654v-33zm-57.743 0h53.76v33H19.91v-33z" fill="#C4CCD7"/><path d="M58.06 60.752l-5.906-7.267c-.198-.245-.5-.4-.836-.4-.336 0-.635.155-.835.4l-.788.97c-.032.047-.067.09-.104.128-.19.2-.457.325-.75.325-.28 0-.534-.11-.72-.29-.065-.062-.12-.13-.167-.204l-2.904-3.572c-.26-.32-.655-.522-1.095-.522-.44 0-.834.203-1.093.523l-7.732 9.51-.128.158c-.098.155-.156.335-.156.53 0 .53.424.96.946.96h21.76c.396 0 .72-.33.72-.733 0-.154-.045-.297-.127-.414l-.082-.1M56.38 46c-1.302 0-2.358 1.072-2.358 2.392 0 1.322 1.056 2.395 2.357 2.395 1.3 0 2.357-1.073 2.357-2.395 0-1.32-1.056-2.392-2.36-2.392" fill="#DCE3EC"/><path d="M19.91 74.5h67.7v2h-67.7v-2zm0 4h71.68v2H19.91v-2zm0 4h63.717v2H19.91v-2zm45.797 4H91.59v22H65.708v-22zm-45.797 0h37.832v2h-37.83v-2zm0 4h33.85v2H19.91v-2zm0 4h41.814v2H19.91v-2zm0 4h37.832v2h-37.83v-2zm0 4h37.832v2h-37.83v-2zm0 4h41.814v2H19.91v-2zm0 4h67.7v2h-67.7v-2zm0 4h71.68v2H19.91v-2zm0 4h63.717v2H19.91v-2zm0 6h71.68v24H19.91v-24z" fill="#C4CCD7"/><path d="M61.386 139.376l-2.953-3.633c-.1-.123-.25-.2-.418-.2-.168 0-.318.077-.418.2l-.394.485-.052.064c-.093.1-.227.162-.374.162-.14 0-.267-.055-.36-.144l-.083-.103-1.452-1.786c-.13-.157-.327-.26-.546-.26-.22 0-.418.103-.547.26l-3.867 4.758-.065.08c-.048.075-.077.165-.077.262 0 .264.212.48.472.48h10.88c.2 0 .36-.165.36-.367 0-.077-.022-.15-.063-.207l-.04-.05M60.545 132c-.65 0-1.18.536-1.18 1.196 0 .66.53 1.197 1.18 1.197.652 0 1.18-.536 1.18-1.197 0-.66-.528-1.196-1.18-1.196" fill="#DCE3EC"/><path d="M19.91 152.5h33.85v2H19.91v-2zm0 4h29.87v2H19.91v-2zm0 4h31.86v2H19.91v-2zm0 4h33.85v2H19.91v-2zm0 4h31.86v2H19.91v-2zm0 4h29.87v2H19.91v-2zm0 4h31.86v2H19.91v-2zm37.832-24H87.61v2H57.74v-2zm0 4h33.85v2H57.74v-2zm0 4H89.6v2H57.742v-2zm0 4H87.61v2H57.74v-2zm0 4h33.85v2H57.74v-2zm0 4H89.6v2H57.742v-2zm0 4h17.92v2h-17.92v-2z" fill="#C4CCD7"/><path d="M15.93 25.5h79.643v157H15.93v-157zm0-16h79.643v12H15.93v-12zM.995 191h109.51V1H.997v190z" fill="#BCDBD6"/><path d="M19.91 176.5h31.86v2H19.91v-2zm37.832 0h17.92v2h-17.92v-2zm-37.83-4h29.866v2H19.91v-2zm37.83 0H89.6v2H57.742v-2zm-37.83-4H51.77v2H19.91v-2zm37.83 0h33.85v2H57.74v-2zm-37.83-4H53.76v2H19.91v-2zm37.83 0H87.61v2H57.74v-2zm-37.83-4H51.77v2H19.91v-2zm37.83 0H89.6v2H57.742v-2zm-37.83-4h29.866v2H19.91v-2zm37.83 0h33.85v2H57.74v-2zm-37.83-4H53.76v2H19.91v-2zm37.83 0H87.61v2H57.74v-2zm-37.83-28h71.68v24H19.91v-24zm0-6h63.715v2H19.91v-2zm0-4h71.68v2H19.91v-2zm0-4H87.61v2h-67.7v-2zm0-4h41.812v2H19.91v-2zm0-4h37.83v2h-37.83v-2zm0-4h37.83v2h-37.83v-2zm0-4h41.812v2H19.91v-2zm0-4H53.76v2H19.91v-2zm0-4h37.83v2h-37.83v-2zm45.795 0H91.59v22H65.708v-22zm-45.796-4H83.63v2H19.91v-2zm0-4h71.68v2H19.91v-2zm0-4h67.7v2h-67.7v-2zm0-37h53.76v33H19.91v-33zm57.744 0H91.59v33H77.654v-33zm-57.742-8h57.743v4H19.91v-4zm63.717 0h7.963v4H83.63v-4zm-67.7 153h79.644v-157H15.93v157z" fill="#D6EFE3"/><path d="M15.93 9.5h79.643v12H15.93v-12zm3.98 20h57.743v4H19.91v-4zm63.717 0h7.964v4H83.63v-4zm-5.974 8H91.59v33H77.654v-33zM35.79 62v-.002c-.522 0-.946-.43-.946-.96 0-.194.058-.374.156-.526l.128-.16 7.733-9.51c.26-.32.656-.522 1.095-.522.44 0 .835.203 1.094.523l2.903 3.57c.046.076.102.144.167.206.185.176.438.287.718.287.294 0 .563-.124.753-.325.04-.04.074-.08.106-.127l.788-.97c.2-.246.5-.4.835-.4.336 0 .637.154.835.4l5.907 7.266.083.1c.082.118.126.26.126.415 0 .404-.323.733-.72.733H35.79zm20.59-11.212c-1.302 0-2.358-1.074-2.358-2.395 0-1.322 1.056-2.393 2.357-2.393 1.3 0 2.357 1.072 2.357 2.392 0 1.322-1.056 2.395-2.36 2.395zM19.91 70.5h53.76v-33H19.91v33z" fill="#A9C8C6"/><path d="M43.954 50.32c-.44 0-.834.203-1.093.523l-7.73 9.51-.13.158c-.097.155-.155.335-.155.53 0 .53.424.96.946.96h21.76c.397 0 .72-.33.72-.733 0-.154-.044-.297-.126-.414l-.082-.1-5.906-7.267c-.198-.245-.5-.4-.836-.4-.336 0-.635.155-.835.4l-.788.97c-.032.047-.067.09-.104.128-.19.2-.458.325-.752.325-.28 0-.532-.11-.72-.29-.063-.063-.12-.13-.165-.205l-2.904-3.572c-.26-.32-.653-.522-1.093-.522M56.38 46c-1.302 0-2.358 1.072-2.358 2.392 0 1.322 1.056 2.395 2.357 2.395 1.3 0 2.357-1.073 2.357-2.395 0-1.32-1.056-2.392-2.36-2.392" fill="#BCDBD6"/><path d="M19.91 74.5h67.7v2h-67.7v-2zm0 4h71.68v2H19.91v-2zm0 4h63.717v2H19.91v-2zm45.797 4H91.59v22H65.708v-22zm-45.797 0h37.832v2h-37.83v-2zm0 4h33.85v2H19.91v-2zm0 4h41.814v2H19.91v-2zm0 4h37.832v2h-37.83v-2zm0 4h37.832v2h-37.83v-2zm0 4h41.814v2H19.91v-2zm0 4h67.7v2h-67.7v-2zm0 4h71.68v2H19.91v-2zm0 4h63.717v2H19.91v-2zM50.25 140c-.26 0-.472-.216-.472-.48 0-.098.03-.188.077-.264l.064-.08 3.865-4.755c.13-.157.327-.26.547-.26.22 0 .417.103.547.26l1.45 1.788.084.103c.093.09.22.145.36.145.147 0 .28-.062.376-.162l.053-.064.394-.487c.1-.122.25-.2.418-.2.168 0 .32.078.418.2l2.953 3.634.04.05c.042.06.064.13.064.207 0 .202-.16.366-.36.366H50.25zm10.295-5.607c-.65 0-1.18-.536-1.18-1.197 0-.66.53-1.196 1.18-1.196.652 0 1.18.536 1.18 1.196 0 .66-.528 1.197-1.18 1.197zM19.91 148.5h71.68v-24H19.91v24z" fill="#A9C8C6"/><path d="M54.333 134.16c-.22 0-.418.102-.547.26l-3.867 4.757-.066.08c-.048.075-.077.165-.077.262 0 .263.212.48.472.48h10.88c.2 0 .36-.166.36-.368 0-.077-.023-.15-.064-.207l-.04-.05-2.954-3.633c-.1-.123-.25-.2-.418-.2-.168 0-.318.077-.418.2l-.394.485-.052.064c-.094.1-.228.163-.375.163-.14 0-.267-.055-.36-.144l-.083-.104-1.452-1.786c-.13-.158-.328-.26-.547-.26m6.212-2.16c-.65 0-1.18.536-1.18 1.196 0 .66.53 1.197 1.18 1.197.652 0 1.18-.536 1.18-1.197 0-.66-.528-1.196-1.18-1.196" fill="#BCDBD6"/><path d="M19.91 152.5h33.85v2H19.91v-2zm0 4h29.87v2H19.91v-2zm0 4h31.86v2H19.91v-2zm0 4h33.85v2H19.91v-2zm0 4h31.86v2H19.91v-2zm0 4h29.87v2H19.91v-2zm0 4h31.86v2H19.91v-2zm37.832-24H87.61v2H57.74v-2zm0 4h33.85v2H57.74v-2zm0 4H89.6v2H57.742v-2zm0 4H87.61v2H57.74v-2zm0 4h33.85v2H57.74v-2zm0 4H89.6v2H57.742v-2zm0 4h17.92v2h-17.92v-2z" fill="#A9C8C6"/><path d="M1.99 2h107.52v188H1.99V2zM0 192h111.502V0H0v192z" fill="#3EB980"/></g></svg>