<svg width="112" height="192" viewBox="0 0 112 192" xmlns="http://www.w3.org/2000/svg"><title>Untitled</title><g fill="none" fill-rule="evenodd"><path d="M.03 0h111.472v191.97H.03V0z" fill="#DCE3EC"/><path d="M15.93 25.5h79.643v157H15.93v-157z" fill="#FCFCFC"/><path d="M15.93 9.5h79.643v12H15.93v-12zm3.98 20h57.743v4H19.91v-4zm63.717 0h7.964v4H83.63v-4zm-5.974 8H91.59v33H77.654v-33zm-57.743 0h53.76v33H19.91v-33z" fill="#C4CCD7"/><path d="M58.06 60.752l-5.905-7.267c-.2-.245-.5-.4-.837-.4-.336 0-.635.155-.835.4l-.788.97c-.032.047-.067.09-.104.128-.19.2-.457.325-.75.325-.28 0-.534-.11-.72-.29-.065-.062-.12-.13-.167-.204l-2.904-3.572c-.26-.32-.655-.522-1.095-.522-.44 0-.834.203-1.093.523L35 60.51c-.098.154-.156.334-.156.53 0 .528.424.96.946.96h21.76v-.002c.396 0 .72-.328.72-.73 0-.156-.045-.3-.127-.416l-.082-.1M56.38 46c-1.302 0-2.358 1.072-2.358 2.393 0 1.32 1.056 2.395 2.357 2.395 1.3 0 2.357-1.074 2.357-2.395 0-1.322-1.056-2.393-2.36-2.393" fill="#DCE3EC"/><path d="M19.91 74.5h67.7v2h-67.7v-2zm0 4h71.68v2H19.91v-2zm0 4h63.717v2H19.91v-2zm45.797 4H91.59v22H65.708v-22zm-45.797 0h37.832v2h-37.83v-2zm0 4h33.85v2H19.91v-2zm0 4h41.814v2H19.91v-2zm0 4h37.832v2h-37.83v-2zm0 4h37.832v2h-37.83v-2zm0 4h41.814v2H19.91v-2zm0 4h67.7v2h-67.7v-2zm0 4h71.68v2H19.91v-2zm0 4h63.717v2H19.91v-2zm0 6h71.68v24H19.91v-24z" fill="#C4CCD7"/><path d="M61.386 139.376l-2.953-3.633c-.1-.123-.25-.2-.418-.2-.168 0-.318.077-.418.2l-.394.485c-.016.022-.034.044-.052.064-.093.1-.23.162-.374.162-.14 0-.267-.055-.36-.145-.032-.03-.06-.067-.083-.104l-1.452-1.785c-.13-.16-.327-.26-.546-.26-.22 0-.418.1-.547.26l-3.93 4.835c-.05.076-.078.166-.078.263 0 .264.21.48.47.48h10.88c.2 0 .36-.165.36-.367 0-.076-.02-.15-.062-.206l-.04-.05M60.545 132c-.65 0-1.18.536-1.18 1.196 0 .66.53 1.197 1.18 1.197.652 0 1.18-.536 1.18-1.197 0-.66-.528-1.196-1.18-1.196" fill="#DCE3EC"/><path d="M19.91 152.5h33.85v2H19.91v-2zm0 4h29.87v2H19.91v-2zm0 4h31.86v2H19.91v-2zm0 4h33.85v2H19.91v-2zm0 4h31.86v2H19.91v-2zm0 4h29.87v2H19.91v-2zm0 4h31.86v2H19.91v-2zm37.832-24H87.61v2H57.74v-2zm0 4h33.85v2H57.74v-2zm0 4H89.6v2H57.742v-2zm0 4H87.61v2H57.74v-2zm0 4h33.85v2H57.74v-2zm0 4H89.6v2H57.742v-2zm0 4h17.92v2h-17.92v-2z" fill="#C4CCD7"/><path d="M1.99 102h107.52v88H1.99v-88zM0 192h111.502v-92H0v92z" fill="#8D96A3"/></g></svg>