<svg width="100" height="100" viewBox="0 0 100 98" xmlns="http://www.w3.org/2000/svg"><title>Shape</title><path d="M100 0H0v60h46v4h-8v4h24v-4h-8v-4h25.143c-1.882 4.496-5.335 6.998-10.832 8.018-7.474 1.44-13.37 4.513-16.6 8.654-.972 1.25-1.674 2.603-2.172 4.05L45 78l-6.5.5-7 18.5 6 1 5.412-6h.448c.705.62 1.627 1 2.64 1 1.013 0 1.935-.38 2.64-1h3.22c.705.62 1.627 1 2.64 1 1.013 0 1.935-.38 2.64-1h.36l5 6 6-1L62 78.5l-6.5-.5-3.585 2.15c.367-.786.82-1.537 1.374-2.248 2.93-3.76 8.4-6.572 15.392-7.92 7.572-1.404 11.01-5.466 12.65-9.982H100V0zM42.5 83.5V85h-1v-1.5H40v-1h1.5V81h1v1.5H44v1h-1.5zM46 91c-1.105 0-2-.895-2-2s.895-2 2-2 2 .895 2 2-.895 2-2 2zm14.5-9c.552 0 1 .448 1 1s-.448 1-1 1-1-.448-1-1 .448-1 1-1zM58 79.5c.552 0 1 .448 1 1s-.448 1-1 1-1-.448-1-1 .448-1 1-1zm0 5c.552 0 1 .448 1 1s-.448 1-1 1-1-.448-1-1 .448-1 1-1zM55.5 82c.552 0 1 .448 1 1s-.448 1-1 1-1-.448-1-1 .448-1 1-1zm-1 5c1.105 0 2 .895 2 2s-.895 2-2 2-2-.895-2-2 .895-2 2-2zM92 57h-2v-2h2v2zm1-5H7V7h86v45z" fill="#C4CCD7" fill-rule="evenodd"/></svg>