<?xml version="1.0" encoding="UTF-8" standalone="no"?>
<svg width="24px" height="24px" viewBox="0 0 24 24" version="1.1" xmlns="http://www.w3.org/2000/svg" xmlns:xlink="http://www.w3.org/1999/xlink" xmlns:sketch="http://www.bohemiancoding.com/sketch/ns">
    <!-- Generator: Sketch 3.4 (15575) - http://www.bohemiancoding.com/sketch -->
    <title>Additional Notes</title>
    <desc>Created with Sketch.</desc>
    <defs></defs>
    <g id="Icons-+-Status" stroke="none" stroke-width="1" fill="none" fill-rule="evenodd" sketch:type="MSPage">
        <g id="Icons" sketch:type="MSArtboardGroup" transform="translate(-257.000000, -363.000000)" stroke="#000000" stroke-linejoin="round">
            <g id="Additional-Notes" sketch:type="MSLayerGroup" transform="translate(257.000000, 363.000000)">
                <path d="M3.4814,6.5 L7.9814,6.5" id="Stroke-481" stroke-linecap="round" sketch:type="MSShapeGroup"></path>
                <path d="M3.4814,9.5 L11.4814,9.5" id="Stroke-482" stroke-linecap="round" sketch:type="MSShapeGroup"></path>
                <path d="M3.4814,12.5 L9.4814,12.5" id="Stroke-483" stroke-linecap="round" sketch:type="MSShapeGroup"></path>
                <path d="M3.4814,15.5 L8.4814,15.5" id="Stroke-484" stroke-linecap="round" sketch:type="MSShapeGroup"></path>
                <path d="M15.998,22.002 L12.498,23.002 L13.498,19.502 L21,12 L23.5,14.5 L15.998,22.002 L15.998,22.002 Z" id="Stroke-485" stroke-linecap="round" sketch:type="MSShapeGroup"></path>
                <path d="M19,14 L21.5,16.5" id="Stroke-486" sketch:type="MSShapeGroup"></path>
                <path d="M13.498,19.502 L15.998,22.002" id="Stroke-487" stroke-linecap="round" sketch:type="MSShapeGroup"></path>
                <path d="M11,21.5 L0.5,21.5 L0.5,0.5 L11.5,0.5 L16.5,5.5 L16.482,12.035" id="Stroke-488" sketch:type="MSShapeGroup"></path>
                <path d="M11.5,0.5 L11.5,5.5 L16.5,5.5" id="Stroke-489" stroke-linecap="round" sketch:type="MSShapeGroup"></path>
            </g>
        </g>
    </g>
</svg>