<?xml version="1.0" encoding="UTF-8" standalone="no"?>
<svg width="24px" height="21px" viewBox="0 0 24 21" version="1.1" xmlns="http://www.w3.org/2000/svg" xmlns:xlink="http://www.w3.org/1999/xlink" xmlns:sketch="http://www.bohemiancoding.com/sketch/ns">
    <!-- Generator: Sketch 3.4 (15575) - http://www.bohemiancoding.com/sketch -->
    <title>Basic Details</title>
    <desc>Created with Sketch.</desc>
    <defs></defs>
    <g id="Icons-+-Status" stroke="none" stroke-width="1" fill="none" fill-rule="evenodd" sketch:type="MSPage">
        <g id="Icons" sketch:type="MSArtboardGroup" transform="translate(-692.000000, -182.000000)" stroke-linecap="round" stroke="#000000" stroke-linejoin="round">
            <g id="Basic-Details" sketch:type="MSLayerGroup" transform="translate(692.000000, 182.000000)">
                <path d="M4.5,2.5 C4.5,3.604 3.604,4.5 2.5,4.5 C1.394,4.5 0.5,3.604 0.5,2.5 C0.5,1.396 1.394,0.5 2.5,0.5 C3.604,0.5 4.5,1.396 4.5,2.5 L4.5,2.5 Z" id="Stroke-2690" sketch:type="MSShapeGroup"></path>
                <path d="M8.5693,2.4277 L23.5003,2.4277" id="Stroke-2691" sketch:type="MSShapeGroup"></path>
                <path d="M4.5,10.5 C4.5,11.604 3.604,12.5 2.5,12.5 C1.394,12.5 0.5,11.604 0.5,10.5 C0.5,9.396 1.394,8.5 2.5,8.5 C3.604,8.5 4.5,9.396 4.5,10.5 L4.5,10.5 Z" id="Stroke-2692" sketch:type="MSShapeGroup"></path>
                <path d="M8.5693,10.4277 L23.5003,10.4277" id="Stroke-2693" sketch:type="MSShapeGroup"></path>
                <path d="M4.5,18.5 C4.5,19.604 3.604,20.5 2.5,20.5 C1.394,20.5 0.5,19.604 0.5,18.5 C0.5,17.396 1.394,16.5 2.5,16.5 C3.604,16.5 4.5,17.396 4.5,18.5 L4.5,18.5 Z" id="Stroke-2694" sketch:type="MSShapeGroup"></path>
                <path d="M8.5693,18.4268 L23.5003,18.4268" id="Stroke-2695" sketch:type="MSShapeGroup"></path>
            </g>
        </g>
    </g>
</svg>