<?xml version="1.0" encoding="UTF-8" standalone="no"?>
<svg width="25px" height="24px" viewBox="0 0 25 24" version="1.1" xmlns="http://www.w3.org/2000/svg" xmlns:xlink="http://www.w3.org/1999/xlink" xmlns:sketch="http://www.bohemiancoding.com/sketch/ns">
    <!-- Generator: Sketch 3.4 (15575) - http://www.bohemiancoding.com/sketch -->
    <title>Breakdown</title>
    <desc>Created with Sketch.</desc>
    <defs></defs>
    <g id="Icons-+-Status" stroke="none" stroke-width="1" fill="none" fill-rule="evenodd" sketch:type="MSPage">
        <g id="Icons" sketch:type="MSArtboardGroup" transform="translate(-612.000000, -180.000000)" stroke-linecap="round" stroke="#000000" stroke-linejoin="round">
            <g id="Breakdown" sketch:type="MSLayerGroup" transform="translate(612.000000, 180.000000)">
                <path d="M13.5,10.5 L23.5,10.5 C23.5,4.978 19.023,0.5 13.5,0.5 L13.5,10.5 L13.5,10.5 Z" id="Stroke-1380" sketch:type="MSShapeGroup"></path>
                <path d="M20.5713,19.5713 C22.3813,17.7613 23.5003,15.2613 23.5003,12.5003 L13.5003,12.5003 L20.5713,19.5713 L20.5713,19.5713 Z" id="Stroke-1381" sketch:type="MSShapeGroup"></path>
                <path d="M10.5,3.5 C4.977,3.5 0.5,7.978 0.5,13.5 C0.5,19.023 4.977,23.5 10.5,23.5 C13.262,23.5 15.762,22.381 17.571,20.571 L10.5,13.5 L10.5,3.5 L10.5,3.5 Z" id="Stroke-1382" sketch:type="MSShapeGroup"></path>
            </g>
        </g>
    </g>
</svg>