<?xml version="1.0" encoding="UTF-8" standalone="no"?>
<svg width="24px" height="24px" viewBox="0 0 24 24" version="1.1" xmlns="http://www.w3.org/2000/svg" xmlns:xlink="http://www.w3.org/1999/xlink" xmlns:sketch="http://www.bohemiancoding.com/sketch/ns">
    <!-- Generator: Sketch 3.4 (15575) - http://www.bohemiancoding.com/sketch -->
    <title>Date</title>
    <desc>Created with Sketch.</desc>
    <defs></defs>
    <g id="Icons-+-Status" stroke="none" stroke-width="1" fill="none" fill-rule="evenodd" sketch:type="MSPage">
        <g id="Icons" sketch:type="MSArtboardGroup" transform="translate(-532.000000, -180.000000)" stroke-linecap="round" stroke="#000000" stroke-linejoin="round">
            <g id="Date" sketch:type="MSLayerGroup" transform="translate(532.000000, 180.000000)">
                <path d="M4.5,2.5 L0.5,2.5 L0.5,23.5 L23.5,23.5 L23.5,2.5 L19.5,2.5" id="Stroke-1351" sketch:type="MSShapeGroup"></path>
                <path d="M7.5,4.5 L4.5,4.5 L4.5,0.5 L7.5,0.5 L7.5,4.5 Z" id="Stroke-1352" sketch:type="MSShapeGroup"></path>
                <path d="M19.5,4.5 L16.5,4.5 L16.5,0.5 L19.5,0.5 L19.5,4.5 Z" id="Stroke-1353" sketch:type="MSShapeGroup"></path>
                <path d="M7.5,2.5 L16.5,2.5" id="Stroke-1354" sketch:type="MSShapeGroup"></path>
                <path d="M0.5,7.5 L23.5,7.5" id="Stroke-1355" sketch:type="MSShapeGroup"></path>
                <path d="M6.5,9.5 L6.5,21.5" id="Stroke-1356" sketch:type="MSShapeGroup"></path>
                <path d="M11.5,9.5 L11.5,21.5" id="Stroke-1357" sketch:type="MSShapeGroup"></path>
                <path d="M16.5,9.5 L16.5,21.5" id="Stroke-1358" sketch:type="MSShapeGroup"></path>
                <path d="M2.5,11.5 L21.5,11.5" id="Stroke-1359" sketch:type="MSShapeGroup"></path>
                <path d="M2.5,15.5 L21.5,15.5" id="Stroke-1360" sketch:type="MSShapeGroup"></path>
                <path d="M2.5,19.5 L21.5,19.5" id="Stroke-1361" sketch:type="MSShapeGroup"></path>
            </g>
        </g>
    </g>
</svg>