<?xml version="1.0" encoding="UTF-8" standalone="no"?>
<svg width="24px" height="25px" viewBox="0 0 24 25" version="1.1" xmlns="http://www.w3.org/2000/svg" xmlns:xlink="http://www.w3.org/1999/xlink" xmlns:sketch="http://www.bohemiancoding.com/sketch/ns">
    <!-- Generator: Sketch 3.4 (15575) - http://www.bohemiancoding.com/sketch -->
    <title>DSP</title>
    <desc>Created with Sketch.</desc>
    <defs></defs>
    <g id="Icons-+-Status" stroke="none" stroke-width="1" fill="none" fill-rule="evenodd" sketch:type="MSPage">
        <g id="Icons" sketch:type="MSArtboardGroup" transform="translate(-318.000000, -365.000000)">
            <g id="DSP" sketch:type="MSLayerGroup" transform="translate(318.000000, 365.000000)">
                <path d="M0.5,4.5 L20.5,4.5" id="Stroke-574" stroke="#000000" stroke-linecap="round" stroke-linejoin="round" sketch:type="MSShapeGroup"></path>
                <path d="M3.5,2 C3.224,2 3,2.224 3,2.5 C3,2.776 3.224,3 3.5,3 C3.776,3 4,2.776 4,2.5 C4,2.224 3.776,2 3.5,2" id="Fill-575" fill="#000000" sketch:type="MSShapeGroup"></path>
                <path d="M5.5,2 C5.224,2 5,2.224 5,2.5 C5,2.776 5.224,3 5.5,3 C5.776,3 6,2.776 6,2.5 C6,2.224 5.776,2 5.5,2" id="Fill-576" fill="#000000" sketch:type="MSShapeGroup"></path>
                <path d="M7.5,2 C7.224,2 7,2.224 7,2.5 C7,2.776 7.224,3 7.5,3 C7.776,3 8,2.776 8,2.5 C8,2.224 7.776,2 7.5,2" id="Fill-577" fill="#000000" sketch:type="MSShapeGroup"></path>
                <path d="M8.5,16.5 L2.5,16.5 C1.396,16.5 0.5,15.605 0.5,14.5 L0.5,2.5 C0.5,1.395 1.396,0.5 2.5,0.5 L18.5,0.5 C19.605,0.5 20.5,1.395 20.5,2.5 L20.5,8.5" id="Stroke-578" stroke="#000000" stroke-linecap="round" stroke-linejoin="round" sketch:type="MSShapeGroup"></path>
                <path d="M23.5,17.6055 C23.5,20.9195 20.814,23.6055 17.5,23.6055 C14.186,23.6055 11.5,20.9195 11.5,17.6055 C11.5,14.2925 14.186,11.6055 17.5,11.6055 C20.814,11.6055 23.5,14.2925 23.5,17.6055 L23.5,17.6055 Z" id="Stroke-579" stroke="#000000" stroke-linejoin="round" sketch:type="MSShapeGroup"></path>
                <path d="M16.1094,18.9258 C16.1094,19.6948 16.7324,20.3168 17.5004,20.3168 C18.2674,20.3168 18.8904,19.6948 18.8904,18.9258 C18.8904,18.1578 18.2674,17.5348 17.5004,17.5348 C16.7324,17.5348 16.1094,16.9118 16.1094,16.1438 C16.1094,15.3758 16.7324,14.7528 17.5004,14.7528 C18.2674,14.7528 18.8904,15.3758 18.8904,16.1438" id="Stroke-580" stroke="#000000" stroke-linecap="round" stroke-linejoin="round" sketch:type="MSShapeGroup"></path>
                <path d="M17.5,20.3164 L17.5,21.2444" id="Stroke-581" stroke="#000000" stroke-linecap="round" stroke-linejoin="round" sketch:type="MSShapeGroup"></path>
                <path d="M17.5,13.8262 L17.5,14.7532" id="Stroke-582" stroke="#000000" stroke-linecap="round" stroke-linejoin="round" sketch:type="MSShapeGroup"></path>
            </g>
        </g>
    </g>
</svg>