<?xml version="1.0" encoding="UTF-8" standalone="no"?>
<svg width="16px" height="17px" viewBox="0 0 16 17" version="1.1" xmlns="http://www.w3.org/2000/svg" xmlns:xlink="http://www.w3.org/1999/xlink" xmlns:sketch="http://www.bohemiancoding.com/sketch/ns">
    <!-- Generator: Sketch 3.3.3 (12072) - http://www.bohemiancoding.com/sketch -->
    <title>Untitled</title>
    <desc>Created with Sketch.</desc>
    <defs></defs>
    <g id="Page-1" stroke="none" stroke-width="1" fill="none" fill-rule="evenodd" sketch:type="MSPage">
        <g id="dsp_icon" sketch:type="MSLayerGroup" fill="#35353A">
            <path d="M2.33333333,1.33333333 C2.51733333,1.33333333 2.66666667,1.48266667 2.66666667,1.66666667 C2.66666667,1.85066667 2.51733333,2 2.33333333,2 C2.14933333,2 2,1.85066667 2,1.66666667 C2,1.48266667 2.14933333,1.33333333 2.33333333,1.33333333 L2.33333333,1.33333333 Z M3.66666667,1.33333333 C3.85066667,1.33333333 4,1.48266667 4,1.66666667 C4,1.85066667 3.85066667,2 3.66666667,2 C3.48266667,2 3.33333333,1.85066667 3.33333333,1.66666667 C3.33333333,1.48266667 3.48266667,1.33333333 3.66666667,1.33333333 L3.66666667,1.33333333 Z M5,1.33333333 C5.184,1.33333333 5.33333333,1.48266667 5.33333333,1.66666667 C5.33333333,1.85066667 5.184,2 5,2 C4.816,2 4.66666667,1.85066667 4.66666667,1.66666667 C4.66666667,1.48266667 4.816,1.33333333 5,1.33333333 L5,1.33333333 Z M14,3 L14,1.66666667 C14,0.747333333 13.2526667,0 12.3333333,0 L1.66666667,0 C0.747333333,0 0,0.747333333 0,1.66666667 L0,3 L14,3 Z" id="Fill-207" sketch:type="MSShapeGroup"></path>
            <path d="M14,7.24733333 L14,4 L0,4 L0,9 C0,10.586 0.747333333,11 2,11 L6,11 C6.856,8.732 9.022,6.66666667 11.6666667,6.66666667 C12.5093333,6.66666667 13.3026667,6.878 14,7.24733333 Z" id="Fill-208" sketch:type="MSShapeGroup"></path>
            <path d="M11.6666667,11.3568 C12.362,11.3568 12.9273333,11.9221333 12.9273333,12.6174667 C12.9273333,13.1961333 12.5326667,13.6794667 12,13.8274667 L12,14.1628 C12,14.3468 11.8506667,14.4961333 11.6666667,14.4961333 C11.4826667,14.4961333 11.3333333,14.3468 11.3333333,14.1628 L11.3333333,13.8274667 C10.8006667,13.6794667 10.406,13.1961333 10.406,12.6174667 C10.406,12.4328 10.5553333,12.2841333 10.7393333,12.2841333 C10.924,12.2841333 11.0726667,12.4328 11.0726667,12.6174667 C11.0726667,12.9448 11.3393333,13.2108 11.6666667,13.2108 C11.994,13.2108 12.2606667,12.9448 12.2606667,12.6174667 C12.2606667,12.2894667 11.994,12.0234667 11.6666667,12.0234667 C10.9713333,12.0234667 10.406,11.4574667 10.406,10.7621333 C10.406,10.1834667 10.8006667,9.69946667 11.3333333,9.55213333 L11.3333333,9.21746667 C11.3333333,9.03346667 11.4826667,8.88413333 11.6666667,8.88413333 C11.8506667,8.88413333 12,9.03346667 12,9.21746667 L12,9.55213333 C12.5326667,9.69946667 12.9273333,10.1834667 12.9273333,10.7621333 C12.9273333,10.9468 12.778,11.0954667 12.594,11.0954667 C12.4093333,11.0954667 12.2606667,10.9468 12.2606667,10.7621333 C12.2606667,10.4348 11.994,10.1688 11.6666667,10.1688 C11.3393333,10.1688 11.0726667,10.4348 11.0726667,10.7621333 C11.0726667,11.0901333 11.3393333,11.3568 11.6666667,11.3568 M11.6666667,7.40346667 C9.27733333,7.40346667 7.33333333,9.34746667 7.33333333,11.7368 C7.33333333,14.1261333 9.27733333,16.0701333 11.6666667,16.0701333 C14.056,16.0701333 16,14.1261333 16,11.7368 C16,9.34746667 14.056,7.40346667 11.6666667,7.40346667" id="Fill-209" sketch:type="MSShapeGroup"></path>
        </g>
    </g>
</svg>