<?xml version="1.0" encoding="UTF-8" standalone="no"?>
<svg width="24px" height="24px" viewBox="0 0 24 24" version="1.1" xmlns="http://www.w3.org/2000/svg" xmlns:xlink="http://www.w3.org/1999/xlink" xmlns:sketch="http://www.bohemiancoding.com/sketch/ns">
    <!-- Generator: Sketch 3.4 (15575) - http://www.bohemiancoding.com/sketch -->
    <title>Finance</title>
    <desc>Created with Sketch.</desc>
    <defs></defs>
    <g id="Icons-+-Status" stroke="none" stroke-width="1" fill="none" fill-rule="evenodd" sketch:type="MSPage">
        <g id="Icons" sketch:type="MSArtboardGroup" transform="translate(-212.000000, -180.000000)" stroke="#0B0B0A" stroke-linejoin="round">
            <g id="Finance" sketch:type="MSLayerGroup" transform="translate(212.000000, 180.000000)">
                <path d="M24,12 C24,18.6283636 18.6283636,24 12,24 C5.37381818,24 0,18.6283636 0,12 C0,5.37381818 5.37381818,0 12,0 C18.6283636,0 24,5.37381818 24,12 L24,12 Z" id="Stroke-1" sketch:type="MSShapeGroup"></path>
                <path d="M9,14.5 C9,15.881 10.3428,17 12,17 C13.6572,17 15,15.881 15,14.5 C15,13.12 13.6572,12 12,12 C10.3428,12 9,10.881 9,9.5 C9,8.12 10.3428,7 12,7 C13.6572,7 15,8.12 15,9.5" id="Stroke-3" stroke-linecap="round" sketch:type="MSShapeGroup"></path>
                <path d="M12,6 L12,19" id="Stroke-5" stroke-linecap="round" sketch:type="MSShapeGroup"></path>
            </g>
        </g>
    </g>
</svg>