<?xml version="1.0" encoding="UTF-8" standalone="no"?>
<svg width="24px" height="24px" viewBox="0 0 24 24" version="1.1" xmlns="http://www.w3.org/2000/svg" xmlns:xlink="http://www.w3.org/1999/xlink" xmlns:sketch="http://www.bohemiancoding.com/sketch/ns">
    <!-- Generator: Sketch 3.4 (15575) - http://www.bohemiancoding.com/sketch -->
    <title>Goals</title>
    <desc>Created with Sketch.</desc>
    <defs></defs>
    <g id="Icons-+-Status" stroke="none" stroke-width="1" fill="none" fill-rule="evenodd" sketch:type="MSPage">
        <g id="Icons" sketch:type="MSArtboardGroup" transform="translate(-292.000000, -180.000000)" stroke="#000000" stroke-linejoin="round">
            <g id="Goals" sketch:type="MSLayerGroup" transform="translate(292.000000, 180.000000)">
                <path d="M11.9717,3.5 L12.9717,5.5 L14.9717,5.5 L13.3547,6.735 L13.9717,9 L11.9717,7.5 L9.9717,9 L10.7667,6.735 L8.9717,5.5 L10.9717,5.5 L11.9717,3.5 L11.9717,3.5 Z" id="Stroke-855" sketch:type="MSShapeGroup"></path>
                <path d="M5.1289,10.5 C0.1289,10.5 0.5069,3.881 0.5069,2.5 L3.0419,2.5" id="Stroke-856" stroke-linecap="round" sketch:type="MSShapeGroup"></path>
                <path d="M18.8506,10.5 C23.8506,10.5 23.5016,3.881 23.5016,2.5 L20.9386,2.5" id="Stroke-857" stroke-linecap="round" sketch:type="MSShapeGroup"></path>
                <path d="M21,0 L3,0 C3,15.434 10.965,12.054 10.965,17.5 C10.902,21 9.262,22 6.5,22 L6.5,24 L17.5,24 L17.5,22 C14.738,22 12.965,21 12.965,17.5 C12.965,12.047 21,16.37 21,1 L21,0 Z" id="Stroke-858" stroke-linecap="round" sketch:type="MSShapeGroup"></path>
            </g>
        </g>
    </g>
</svg>