<?xml version="1.0" encoding="UTF-8" standalone="no"?>
<svg width="21px" height="24px" viewBox="0 0 21 24" version="1.1" xmlns="http://www.w3.org/2000/svg" xmlns:xlink="http://www.w3.org/1999/xlink" xmlns:sketch="http://www.bohemiancoding.com/sketch/ns">
    <!-- Generator: Sketch 3.4 (15575) - http://www.bohemiancoding.com/sketch -->
    <title>Group</title>
    <desc>Created with Sketch.</desc>
    <defs></defs>
    <g id="Icons-+-Status" stroke="none" stroke-width="1" fill="none" fill-rule="evenodd" sketch:type="MSPage">
        <g id="Icons" sketch:type="MSArtboardGroup" transform="translate(-942.000000, -179.000000)" stroke-linecap="round" stroke="#000000" stroke-linejoin="round">
            <g id="Group" sketch:type="MSLayerGroup" transform="translate(942.000000, 179.000000)">
                <path d="M9.5,0.5 L11.5,0.5" id="Stroke-1482" sketch:type="MSShapeGroup"></path>
                <path d="M10.5,0.5 L10.5,3.5" id="Stroke-1483" sketch:type="MSShapeGroup"></path>
                <path d="M18.5,3.5 L20,5" id="Stroke-1484" sketch:type="MSShapeGroup"></path>
                <path d="M19.25,4.25 L17.316,6.184" id="Stroke-1485" sketch:type="MSShapeGroup"></path>
                <path d="M3.5,13.5 L5.5,13.5" id="Stroke-1486" sketch:type="MSShapeGroup"></path>
                <path d="M5.5,8.5 L7,10" id="Stroke-1487" sketch:type="MSShapeGroup"></path>
                <path d="M5.5,18.5 L7,17" id="Stroke-1488" sketch:type="MSShapeGroup"></path>
                <path d="M17.5,13.5 L15.5,13.5" id="Stroke-1489" sketch:type="MSShapeGroup"></path>
                <path d="M10.5,20.5 L10.5,18.5" id="Stroke-1490" sketch:type="MSShapeGroup"></path>
                <path d="M10.5,6.5 L10.5,8.5" id="Stroke-1491" sketch:type="MSShapeGroup"></path>
                <path d="M15.5,18.5 L14,17" id="Stroke-1492" sketch:type="MSShapeGroup"></path>
                <path d="M15.5,8.5 L14,10" id="Stroke-1493" sketch:type="MSShapeGroup"></path>
                <path d="M20.5,13.5 C20.5,19.022 16.023,23.5 10.5,23.5 C4.977,23.5 0.5,19.022 0.5,13.5 C0.5,7.978 4.977,3.5 10.5,3.5 C16.023,3.5 20.5,7.978 20.5,13.5 L20.5,13.5 Z" id="Stroke-1494" sketch:type="MSShapeGroup"></path>
            </g>
        </g>
    </g>
</svg>