<svg width="12" height="16" viewBox="0 0 12 16" xmlns="http://www.w3.org/2000/svg"><title>Control-currency-focus</title><desc>Created with Sketch.</desc><g fill="none" fill-rule="evenodd"><path d="M7.464 6.78c-.25-.05-.3-.15-.697-.2V3.44c1.096.248 1.345.946 1.445 2.093h2.89c0-2.94-1.793-4.187-4.286-4.486V0H5.172v.997C2.93 1.197.785 2.542.785 4.984c0 2.542 2.044 3.29 4.038 3.838.1.05.2.05.35.1v3.69c-1.048-.3-1.746-.948-1.746-2.145H.437c-.05 2.443 2.193 4.237 4.784 4.536V16H6.77v-.997c3.14-.3 4.784-1.994 4.784-4.237 0-3.09-3.14-3.738-4.088-3.987zm-2.292-.65c-1.197-.348-1.496-.647-1.496-1.345 0-.897.698-1.346 1.496-1.495v2.84zm1.595 6.53V9.42c1.146.35 1.744.748 1.744 1.645 0 .997-.597 1.446-1.743 1.595z" fill="#35353A"/></g></svg>