<svg width="16" height="17" viewBox="0 0 12 17" xmlns="http://www.w3.org/2000/svg"><title>Shape</title><path d="M7.426 7.8c-.262-.07-.292-.13-.675-.19V4.427c1.08.273 1.345.956 1.405 2.094h2.836c0-2.965-1.75-4.18-4.24-4.5V.987H5.164v.984C2.978 2.194.868 3.51.868 6.007c0 2.53 1.996 3.3 3.97 3.83.107.03.216.058.325.086v3.683c-1.03-.286-1.735-.93-1.735-2.16H.47c-.03 2.46 2.15 4.248 4.692 4.542v.993H6.75v-1c3.107-.31 4.71-2.02 4.71-4.254 0-3.06-3.067-3.68-4.035-3.927zm-2.263-.685C3.988 6.742 3.7 6.452 3.7 5.76c0-.91.702-1.345 1.463-1.478v2.833zm1.587 6.557V10.43c1.133.324 1.71.76 1.71 1.637 0 1.04-.577 1.46-1.71 1.604v.004z" fill="#FCFCFC" fill-rule="evenodd"/></svg>