<svg width="16" height="24" viewBox="0 0 16 24" xmlns="http://www.w3.org/2000/svg"><title>Untitled</title><path d="M8 24c4.41 0 8-3.59 8-8 0-2.02-.76-3.864-2-5.274V5.5l-.008-.09C13.424 2.277 10.904 0 8 0 5.095 0 2.575 2.276 2.008 5.41L2 10.727C.76 12.136 0 13.98 0 16c0 4.41 3.59 8 8 8zm.5-7.14v2.64c0 .277-.224.5-.5.5s-.5-.223-.5-.5v-2.64c-.298-.172-.5-.49-.5-.86 0-.55.448-1 1-1 .55 0 1 .45 1 1 0 .37-.203.688-.5.86zM8 1c2.407 0 4.503 1.91 5 4.546v4.22C11.63 8.663 9.89 8 8 8c-1.892 0-3.63.664-5 1.765v-4.22C3.496 2.91 5.593 1 8 1z" fill="#fcfcfc" fill-rule="evenodd"/></svg>