<svg width="16" height="16" viewBox="0 0 16 16" xmlns="http://www.w3.org/2000/svg"><title>Slice 1</title><path d="M14 6c1.1 0 2-.9 2-2s-.9-2-2-2-2 .9-2 2c0 .2 0 .4.1.7L9.3 6.5c-.3-.3-.7-.4-1.1-.5l-.4-2.2C8.5 3.5 9 2.8 9 2c0-1.1-.9-2-2-2S5 .9 5 2c0 1 .8 1.9 1.8 2l.4 2.2c-.4.1-.7.4-.9.7L4 6.1V6c0-1.1-.9-2-2-2s-2 .9-2 2 .9 2 2 2c.7 0 1.3-.4 1.7-.9l2.3.8V8c0 .4.1.7.3 1l-1.5 1.5c-.6-.3-1.2-.5-1.8-.5-1.7 0-3 1.3-3 3s1.3 3 3 3 3-1.3 3-3c0-.6-.2-1.2-.6-1.7L7 9.7c.3.2.6.3 1 .3s.7-.1 1-.3l1.4 1.4c-.2.4-.4.9-.4 1.4 0 1.4 1.1 2.5 2.5 2.5s2.5-1.1 2.5-2.5-1.1-2.5-2.5-2.5c-.5 0-1 .2-1.4.4L9.7 9c.2-.3.3-.6.3-1 0-.2 0-.4-.1-.7l2.8-1.9c.3.4.8.6 1.3.6z" fill="#8d96a3" fill-rule="evenodd"/></svg>
